<svg width="26" height="26" viewBox="0 0 26 26" fill="none" xmlns="http://www.w3.org/2000/svg">
<path d="M13.0005 3.09998C18.4679 3.10019 22.8999 7.53288 22.8999 13.0004C22.8997 18.4677 18.4678 22.8996 13.0005 22.8998C7.533 22.8998 3.10031 18.4678 3.1001 13.0004C3.1001 7.53275 7.53287 3.09998 13.0005 3.09998ZM18.1733 9.12732C17.4704 8.42438 16.3304 8.42438 15.6274 9.12732L11.6997 13.0541L10.3726 11.7269C9.66969 11.0244 8.53051 11.0244 7.82764 11.7269C7.12469 12.4299 7.12469 13.5699 7.82764 14.2728L10.4272 16.8724C11.1302 17.5754 12.2702 17.5754 12.9731 16.8724L18.1733 11.6732C18.8762 10.9704 18.876 9.83029 18.1733 9.12732Z" fill="#82D3C4" stroke="#82D3C4"/>
</svg>
